<svg height="958" width="720" xmlns="http://www.w3.org/2000/svg">
<rect height="958" fill="#555" width="720"></rect>
<text fill="#7f7" font-family="Courier New" font-size="12" xml:space="preserve">
<tspan x="10" y="26">5 megabytes installed</tspan>
<tspan x="10" y="42"></tspan>
<tspan x="10" y="58">node_modules</tspan>
<tspan x="10" y="74">└─┬ follow@0.12.1 </tspan>
<tspan x="10" y="90">  ├── browser-request@0.3.3 </tspan>
<tspan x="10" y="106">  ├─┬ debug@2.6.3 </tspan>
<tspan x="10" y="122">  │ └── ms@0.7.2 </tspan>
<tspan x="10" y="138">  └─┬ request@2.55.0 </tspan>
<tspan x="10" y="154">    ├── aws-sign2@0.5.0 </tspan>
<tspan x="10" y="170">    ├─┬ bl@0.9.5 </tspan>
<tspan x="10" y="186">    │ └─┬ readable-stream@1.0.34 </tspan>
<tspan x="10" y="202">    │   ├── core-util-is@1.0.2 </tspan>
<tspan x="10" y="218">    │   ├── inherits@2.0.3 </tspan>
<tspan x="10" y="234">    │   ├── isarray@0.0.1 </tspan>
<tspan x="10" y="250">    │   └── string_decoder@0.10.31 </tspan>
<tspan x="10" y="266">    ├── caseless@0.9.0 </tspan>
<tspan x="10" y="282">    ├─┬ combined-stream@0.0.7 </tspan>
<tspan x="10" y="298">    │ └── delayed-stream@0.0.5 </tspan>
<tspan x="10" y="314">    ├── forever-agent@0.6.1 </tspan>
<tspan x="10" y="330">    ├─┬ form-data@0.2.0 </tspan>
<tspan x="10" y="346">    │ └── async@0.9.2 </tspan>
<tspan x="10" y="362">    ├─┬ har-validator@1.8.0 </tspan>
<tspan x="10" y="378">    │ ├── bluebird@2.11.0 </tspan>
<tspan x="10" y="394">    │ ├─┬ chalk@1.1.3 </tspan>
<tspan x="10" y="410">    │ │ ├── ansi-styles@2.2.1 </tspan>
<tspan x="10" y="426">    │ │ ├── escape-string-regexp@1.0.5 </tspan>
<tspan x="10" y="442">    │ │ ├─┬ has-ansi@2.0.0 </tspan>
<tspan x="10" y="458">    │ │ │ └── ansi-regex@2.1.1 </tspan>
<tspan x="10" y="474">    │ │ ├── strip-ansi@3.0.1 </tspan>
<tspan x="10" y="490">    │ │ └── supports-color@2.0.0 </tspan>
<tspan x="10" y="506">    │ ├─┬ commander@2.9.0 </tspan>
<tspan x="10" y="522">    │ │ └── graceful-readlink@1.0.1 </tspan>
<tspan x="10" y="538">    │ └─┬ is-my-json-valid@2.16.0 </tspan>
<tspan x="10" y="554">    │   ├── generate-function@2.0.0 </tspan>
<tspan x="10" y="570">    │   ├─┬ generate-object-property@1.2.0 </tspan>
<tspan x="10" y="586">    │   │ └── is-property@1.0.2 </tspan>
<tspan x="10" y="602">    │   ├── jsonpointer@4.0.1 </tspan>
<tspan x="10" y="618">    │   └── xtend@4.0.1 </tspan>
<tspan x="10" y="634">    ├─┬ hawk@2.3.1 </tspan>
<tspan x="10" y="650">    │ ├── boom@2.10.1 </tspan>
<tspan x="10" y="666">    │ ├── cryptiles@2.0.5 </tspan>
<tspan x="10" y="682">    │ ├── hoek@2.16.3 </tspan>
<tspan x="10" y="698">    │ └── sntp@1.0.9 </tspan>
<tspan x="10" y="714">    ├─┬ http-signature@0.10.1 </tspan>
<tspan x="10" y="730">    │ ├── asn1@0.1.11 </tspan>
<tspan x="10" y="746">    │ ├── assert-plus@0.1.5 </tspan>
<tspan x="10" y="762">    │ └── ctype@0.5.3 </tspan>
<tspan x="10" y="778">    ├── isstream@0.1.2 </tspan>
<tspan x="10" y="794">    ├── json-stringify-safe@5.0.1 </tspan>
<tspan x="10" y="810">    ├─┬ mime-types@2.0.14 </tspan>
<tspan x="10" y="826">    │ └── mime-db@1.12.0 </tspan>
<tspan x="10" y="842">    ├── node-uuid@1.4.8 </tspan>
<tspan x="10" y="858">    ├── oauth-sign@0.6.0 </tspan>
<tspan x="10" y="874">    ├── qs@2.4.2 </tspan>
<tspan x="10" y="890">    ├── stringstream@0.0.5 </tspan>
<tspan x="10" y="906">    ├─┬ tough-cookie@2.3.2 </tspan>
<tspan x="10" y="922">    │ └── punycode@1.4.1 </tspan>
<tspan x="10" y="938">    └── tunnel-agent@0.4.3</tspan>
</text>
</svg>
